<svg xmlns="http://www.w3.org/2000/svg" width="85.857" height="41.9" viewBox="0 0 85.857 41.9">
    <g id="tabby" transform="translate(-0.3 223)">
        <path id="Path_187" data-name="Path 187" d="M3.163-223h80.13a2.874,2.874,0,0,1,2.863,2.863v36.174a2.874,2.874,0,0,1-2.863,2.863H3.163A2.874,2.874,0,0,1,.3-183.963v-36.174A2.874,2.874,0,0,1,3.163-223Z" fill="#57f4d7" />
        <g id="wordmark2-copy-2" transform="translate(4.817 -214.047)">
            <path id="Path" d="M17.106-186.025a8.542,8.542,0,0,1-2.178.242,5.3,5.3,0,0,1-4.517-1.9,6.078,6.078,0,0,1-.968-3.912v-4.517H6.5v-2.944H9.484V-205.1h3.468v6.049h4.234v2.944H12.952v4.96a2.357,2.357,0,0,0,.4,1.613,2.2,2.2,0,0,0,1.774.645,10.193,10.193,0,0,0,1.411-.121Z" transform="translate(-6.5 205.382)" />
            <path id="Path_1_" d="M140.218-170.5l3.589-7.743L138-189.9h3.831l3.791,7.783,3.549-7.783h3.67l-8.953,19.438h-3.67Z" transform="translate(-84.97 196.312)" />
            <path id="Shape" d="M43.962-190.358v1.049a5.831,5.831,0,0,0-3.791-1.29,6.508,6.508,0,0,0-6.372,6.775,7,7,0,0,0,1.653,4.557,6.616,6.616,0,0,0,4.88,2.218,5.642,5.642,0,0,0,3.629-1.29v1.049H47.31v-13.066ZM40.454-180.2a3.657,3.657,0,0,1-3.67-3.67,3.657,3.657,0,0,1,3.67-3.67,3.657,3.657,0,0,1,3.67,3.67A3.632,3.632,0,0,1,40.454-180.2Z" transform="translate(-22.791 196.73)" />
            <path id="Shape_1_" d="M78.338-199.193a6.062,6.062,0,0,0-3.791,1.29V-205H71.2v19.034h3.347v-1.049a5.565,5.565,0,0,0,3.629,1.29,6.347,6.347,0,0,0,4.88-2.218A7,7,0,0,0,84.71-192.5,6.461,6.461,0,0,0,78.338-199.193Zm-.282,10.4a3.657,3.657,0,0,1-3.67-3.67,3.657,3.657,0,0,1,3.67-3.67,3.657,3.657,0,0,1,3.67,3.67A3.683,3.683,0,0,1,78.056-188.788Z" transform="translate(-45.108 205.323)" />
            <path id="Shape_2_" d="M114.138-199.193a6.062,6.062,0,0,0-3.791,1.29V-205H107v19.034h3.347v-1.049a5.565,5.565,0,0,0,3.629,1.29,6.347,6.347,0,0,0,4.88-2.218,7,7,0,0,0,1.653-4.557A6.512,6.512,0,0,0,114.138-199.193Zm-.323,10.4a3.657,3.657,0,0,1-3.67-3.67,3.657,3.657,0,0,1,3.67-3.67,3.657,3.657,0,0,1,3.67,3.67A3.71,3.71,0,0,1,113.815-188.788Z" transform="translate(-66.471 205.323)" />
            <path id="Path_2_" d="M191.6-200.479h3.025a4.317,4.317,0,0,0-1.492-2.621Z" transform="translate(-116.954 204.189)" fill="#57f4d7" stroke="#000" stroke-width="1" />
            <path id="Path_3_" d="M184.7-190.135a4.4,4.4,0,0,0,1.774.4,3.708,3.708,0,0,0,1.774-.4l-1.774-3.065Z" transform="translate(-112.837 198.281)" />
            <path id="Path_4_" d="M190.8-194.2l1.774,3.065a4.1,4.1,0,0,0,1.774-3.065Z" transform="translate(-116.477 198.878)" />
            <path id="Path_5_" d="M188.149-205.4a4.4,4.4,0,0,0-1.774-.4,3.708,3.708,0,0,0-1.774.4l1.774,3.065Z" transform="translate(-112.777 205.8)" />
            <path id="Path_6_" d="M181.949-194.3H178.4a4.228,4.228,0,0,0,1.774,3.065Z" transform="translate(-109.077 198.938)" />
            <path id="Path_7_" d="M181.949-200.835l-1.774-3.065a4.1,4.1,0,0,0-1.774,3.065Z" transform="translate(-109.077 204.666)" />
        </g>
    </g>
</svg>
  